<?xml version="1.0" encoding="UTF-8" standalone="no"?><!DOCTYPE svg PUBLIC "-//W3C//DTD SVG 1.1//EN" "http://www.w3.org/Graphics/SVG/1.1/DTD/svg11.dtd"><svg width="100%" height="100%" viewBox="0 0 4415 4574" version="1.1" xmlns="http://www.w3.org/2000/svg" xmlns:xlink="http://www.w3.org/1999/xlink" xml:space="preserve" xmlns:serif="http://www.serif.com/" style="fill-rule:evenodd;clip-rule:evenodd;stroke-linecap:round;stroke-linejoin:round;stroke-miterlimit:1.5;"><g><circle cx="2207.354" cy="2286.754" r="1979.167" style="fill:none;stroke:#00845a;stroke-width:291.67px;"/><path d="M1589.681,1340.08c-23.333,6.25 -57.083,45.417 -82.917,96.25c-6.25,12.917 -25.417,44.583 -42.5,70.833c-28.333,43.75 -48.333,77.083 -177.083,295c-53.333,91.25 -115.833,195.417 -167.5,279.167c-63.333,104.167 -94.583,156.25 -104.167,175c-5,10 -15.417,27.083 -22.5,37.917c-89.167,133.333 -183.75,296.667 -285.417,492.5c-28.75,55.833 -27.083,88.333 6.25,107.917c19.583,11.667 112.917,18.333 178.75,12.917c90.417,-7.5 111.25,-19.583 158.75,-93.333c13.333,-20.833 32.083,-49.167 41.25,-63.333c9.583,-14.167 19.583,-32.083 22.917,-40c2.917,-7.5 9.583,-18.75 14.583,-25c5,-5.833 17.917,-26.667 29.167,-46.25c39.167,-68.75 79.167,-136.25 114.583,-193.75c20,-32.083 39.583,-64.583 43.75,-72.5c3.75,-7.5 19.583,-32.917 35.417,-56.25c15.417,-22.917 34.167,-53.333 41.25,-67.083c7.083,-13.75 22.917,-41.25 35,-60.833c11.667,-19.583 27.083,-45 33.75,-56.25c6.667,-11.25 17.5,-30 24.583,-41.25c6.667,-11.667 22.083,-37.5 33.75,-57.5c55.833,-97.5 88.333,-101.667 143.333,-17.5c120.417,185 125.417,221.667 33.75,239.583c-59.167,11.667 -96.667,43.333 -140,118.75c-10.417,18.333 -25,42.917 -32.917,54.583c-41.667,65 -50.833,98.75 -34.583,125.417c16.25,25.833 3.75,25 323.333,27.5c321.25,2.917 314.583,2.5 336.667,28.75c13.75,16.25 13.333,30.833 -2.5,60c-7.5,13.75 -18.75,35.833 -25.833,49.583c-12.917,26.667 -66.667,116.667 -87.917,147.917c-7.083,10.417 -17.5,27.917 -23.75,39.583c-5.833,11.25 -27.5,47.5 -47.917,80c-67.917,108.333 -98.75,164.167 -100.417,182.083c-2.5,24.583 8.75,44.167 32.083,55.833c18.75,9.167 18.75,9.167 489.583,8.333c526.667,-1.25 491.25,0.833 532.917,-31.25c22.5,-17.5 18.333,-10.833 124.167,-199.167c19.167,-35 14.167,-69.167 -13.75,-88.75c-13.75,-9.583 -93.75,-12.5 -331.667,-12.917c-204.583,-0.417 -228.75,-2.5 -245.833,-19.583c-19.583,-19.583 -13.333,-46.667 27.083,-113.333c13.75,-22.083 33.333,-57.5 44.167,-77.917c27.083,-53.333 51.667,-82.5 80.833,-96.667c23.75,-11.667 527.917,-15.833 551.667,-27.5c28.333,-13.75 55.833,-42.917 77.083,-81.667c8.75,-15 29.167,-48.333 45.417,-73.75c50.833,-78.333 56.25,-92.917 44.167,-119.583c-17.083,-37.917 45.417,-33.75 -571.25,-36.25c-544.167,-2.083 -544.167,-2.083 -569.167,-12.5c-32.917,-13.75 -47.917,-34.167 -80.417,-109.583c-38.75,-88.75 -112.5,-220.417 -183.333,-327.917c-26.667,-40 -54.583,-83.75 -62.083,-96.667c-7.5,-13.333 -20.417,-35.833 -29.167,-50.417c-8.333,-14.167 -24.583,-42.917 -35.833,-63.333c-24.583,-43.75 -81.25,-139.167 -112.5,-188.333c-35.417,-56.25 -59.583,-75 -87.083,-67.5Z" style="fill:#00845a;fill-rule:nonzero;stroke:#00845a;stroke-width:20.83px;stroke-linecap:butt;stroke-miterlimit:2;"/><path d="M2535.514,1612.163c-27.917,7.5 -54.583,31.25 -76.25,68.333c-10.417,17.5 -18.75,33.333 -18.75,35.417c0,2.083 -17.083,30 -38.333,62.5c-41.667,64.167 -50.833,85 -47.083,103.75c4.167,17.917 25.417,40 42.917,45c27.917,7.5 1118.333,5.417 1148.75,-2.083c43.75,-11.25 65.833,-30.417 107.083,-91.667c71.25,-105.833 85,-144.167 65.417,-184.167c-10.833,-22.5 -23.333,-29.167 -69.583,-36.667c-50.417,-8.333 -1083.75,-8.75 -1114.167,-0.417Z" style="fill:#00845a;fill-rule:nonzero;stroke:#00845a;stroke-width:20.83px;stroke-linecap:butt;stroke-miterlimit:2;"/></g></svg>